<svg width="81" height="80" viewBox="0 0 81 80" fill="none" xmlns="http://www.w3.org/2000/svg">
<path d="M30.2812 74.8281C29.6875 74.7656 29.0469 74.6719 28.875 74.625C28.6875 74.5781 27.4531 73.625 26.125 72.5C24.7969 71.375 22.0469 69.0625 20.0312 67.375C18.0156 65.6875 15.7812 63.7344 15.0625 63.0625C10.875 59.0469 9.89062 53.9375 12.375 49.0938C12.7188 48.4375 13.1094 47.7032 13.25 47.4844L13.5156 47.0782L11.7031 44.7344C9.84375 42.3438 8.78125 40.7344 7.82812 38.9063L7.29688 37.8907L7.3125 35.3907C7.34375 32.5157 7.51562 30.8594 8.17188 27.6094C9.4375 21.3125 12.375 16.0157 16.4688 12.5938C19.6719 9.92191 22.0156 9.10941 28.7031 8.35941C34.2656 7.73441 40.8438 8.32816 46.9531 10.0157C47.9062 10.2813 49.5938 10.8594 50.6875 11.2813C51.7812 11.7188 52.7812 12.0313 52.8906 11.9844C53.0312 11.9375 53.1875 11.0782 53.3906 9.04691C53.5469 7.46878 53.7188 6.01566 53.7656 5.82816C53.8438 5.53128 54.1719 5.89066 55.8906 8.21878C57.0156 9.73441 58.5625 11.8125 59.3281 12.8438C60.1094 13.8594 61.0469 15.1563 61.4375 15.7032C61.8281 16.25 63.3281 18.2969 64.7969 20.2657C66.25 22.2188 68.2812 24.9532 69.2969 26.3282C70.9062 28.5 71.1094 28.8282 70.8594 28.9375C70.7031 29 68.2656 29.625 65.4219 30.3125C62.5938 31.0157 57.3438 32.3125 53.7812 33.2188C44.8281 35.4844 45.4844 35.3438 45.5625 34.9375C45.5938 34.7657 46 33.0938 46.4531 31.2344C46.9062 29.375 47.2344 27.75 47.1719 27.625C47.0781 27.3594 43.75 26.2344 41.9375 25.8594C40.6875 25.6094 39.875 25.5625 39.875 25.75C39.875 25.8125 39.3906 26.2344 38.8125 26.6719C35.3125 29.3438 31.6562 34.2969 28.2969 40.8907L27.0938 43.2813L27.8125 43.875C29.6562 45.375 34.3281 48.5313 36.6094 49.7969C37.0625 50.0625 37.9062 50.5313 38.4688 50.8594C39.9531 51.7032 44.375 53.9063 44.5938 53.9063C44.9375 53.9063 47.2969 51.7813 48.3594 50.5313C49.375 49.3125 50.4062 47.7188 50.8125 46.7344L51.0312 46.1875L48.7812 44.0313C47.5312 42.8438 46.5781 41.875 46.6562 41.875C46.7188 41.875 48.6875 41.4532 51.0312 40.9219C54.5156 40.1563 65.0312 37.8594 71.9531 36.375C72.7812 36.2032 73.5156 36.0938 73.5625 36.125C73.6406 36.2032 72.5625 41.5469 71.25 47.5C70.9062 49.0938 70.4531 51.1719 70.25 52.1094C69.9688 53.4532 68.7188 59.2188 67.5625 64.5313L67.4375 65.0625L65.7969 62.7344C64.9062 61.4375 64.0469 60.375 63.8906 60.3438C63.75 60.3125 63.1562 60.6719 62.5781 61.1407C60.25 63 56.1719 65.8438 53.5312 67.4375C46.0469 71.9375 39.8906 74.2969 34.1562 74.8438C32.2656 75.0156 31.8594 75.0156 30.2812 74.8281ZM26.3125 63.125C28.625 62.3438 30.3438 61.6875 33.9844 60.1875C34.2969 60.0625 34.5625 59.8907 34.5625 59.8282C34.5625 59.75 34.1562 59.5782 33.6719 59.4532C30.2969 58.5157 26.5938 56.9844 23.7031 55.3282L22.5938 54.7032L22.5625 55.0938C22.5469 55.3125 22.4062 55.8907 22.2656 56.375C22.0625 57.0313 22 57.8282 21.9844 59.375C21.9844 61.1719 22.0469 61.625 22.3281 62.4063C22.75 63.5157 23.0938 64.0625 23.375 64.0625C23.5 64.0625 24.8125 63.6407 26.3125 63.125ZM19.1562 35.0938C18.9531 34.5625 20.25 32.4063 22.125 30.1719C23.75 28.2188 27.0625 24.8438 27.3594 24.8438C27.5781 24.8438 27.5781 24.8125 27.375 24.6875C27.25 24.6094 26.5469 24.5782 25.8125 24.625C19.0625 25 14.5781 25.4063 14.2969 25.6719C13.7188 26.2344 16.8594 32.6875 18.7188 34.7969C19.2344 35.375 19.2812 35.4063 19.1562 35.0938Z" fill="#13425C"/>
<path d="M30.2813 74.8281C29.6875 74.7656 29.0469 74.6718 28.875 74.625C28.6875 74.5781 27.4532 73.625 26.125 72.5C24.7969 71.375 22.0469 69.0625 20.0313 67.375C15.4844 63.5625 13.9688 62.125 13.0469 60.7343C10.5469 56.9843 10.3594 52.8906 12.5 48.8281C12.9063 48.0625 13.3282 47.4218 13.4219 47.4218C13.5157 47.4218 14.4375 48.2187 15.4688 49.1875C17.6563 51.25 19.5625 52.8125 21.375 54.0156C22.7813 54.9531 22.7188 54.7968 22.2657 56.3281C21.9375 57.4843 21.8282 60.1093 22.0469 61.2656C22.2813 62.4375 22.8907 63.875 23.2188 64C23.6407 64.1562 28.9375 62.2812 34.0157 60.1875C40.1407 57.6562 46.6875 53.0156 49.2813 49.375C50 48.3593 50.9688 46.5937 50.9688 46.2812C50.9688 46.1875 49.9844 45.1875 48.7813 44.0468C47.5782 42.9062 46.625 41.9531 46.6407 41.9375C46.7188 41.8593 59.7657 38.9999 71.9532 36.3749C72.7813 36.2031 73.5157 36.0937 73.5625 36.1249C73.6407 36.2031 72.5625 41.5468 71.25 47.5C70.9063 49.0937 70.4532 51.1718 70.25 52.1093C69.9688 53.4531 68.7188 59.2187 67.5625 64.5312L67.4375 65.0625L65.7969 62.7343C64.9063 61.4375 64.0469 60.375 63.8907 60.3437C63.75 60.3125 63.1563 60.6718 62.5782 61.1406C60.25 63 56.1719 65.8437 53.5313 67.4375C46.0469 71.9375 39.8907 74.2968 34.1563 74.8437C32.2657 75.0156 31.8594 75.0156 30.2813 74.8281Z" fill="#17A17F"/>
<path d="M26.5938 42.6875C25.1407 41.5625 21.875 38.4219 20.6719 37C19.0313 35.0313 19.0469 35.0625 19.25 34.4531C19.7188 33.0313 21.9375 30.1875 25.1719 26.8281L27.1407 24.7969L31.0469 24.8906C35.2813 25 39.875 25.4375 39.875 25.75C39.875 25.8125 39.3907 26.2344 38.8125 26.6719C37.6094 27.5938 35.5313 29.7031 34.2344 31.3281C32.3438 33.6875 29.6875 38 28.0625 41.375C27.5938 42.3282 27.1875 43.125 27.1719 43.125C27.1563 43.1094 26.8907 42.9219 26.5938 42.6875Z" fill="#17A17F"/>
</svg>
